# xmcd CD database file
# Copyright (C) 1997 Ti Kan
# 
# Track frame offsets:
#     150
#     26137
#     44650
#     56687
#     72950
#     93437
#     112337
#     127725
#     153025
#     170340
#     200287
# 
# Disc length: 3619 seconds
# 
# Revision: 1
# Processed by: cddbd v1.4b41PL1 Copyright (c) Steve Scherf et al.
# Submitted via: DiscPlay 4.0.4
# 
DISCID=940e210b
DTITLE=Spacemen 3 - Spacemen Are GO!
DYEAR=1900
DGENRE=
TTITLE0=Rollercoaster
TTITLE1=Mary Anne
TTITLE2=Bo Diddley Jam
TTITLE3=2:35
TTITLE4=Walking With Jesus
TTITLE5=I Believe
TTITLE6=Lord Can You Hear Me?
TTITLE7=Things'll Never Be the Same
TTITLE8=Starship
TTITLE9=Revolution
TTITLE10=Suicide
EXTD=
EXTT0=Rollercoaster was the opening song for \nmost of 1989 after coming on 
EXTT0=stae to the \nsounds of Ecstasy Symphony (or on \none occasion, Mr. Sp
EXTT0=aceman by The \nByrds]\n
EXTT1=
EXTT2=An instrumental jam occasionally included \nas part of the regular set
EXTT2=\n
EXTT3=A regular part of the Spacemen set since \nthe band's first recordings
EXTT3=in 1984.\n
EXTT4=The original lyrics for Walkin' With \nJesus included the line Listen 
EXTT4=Sweet \nLord, forgive me my sins.  Cause I can't \nstand this life wit
EXTT4=hout sweet heroin.  \nDeleted for the studio recordings, Jason \nwould
EXTT4=occasionally sing them live as \nrecorded here in 1989.\n
EXTT5=Even with a whole album of new material \non Playing With Fire, Spacem
EXTT5=en 3 only \nregularly preformed Suicide, \nRevolution, and How Does It
EXTT5=Feel \nfrom that album, while ignoring the other \ntracks.  Every so 
EXTT5=oftem, one of them \nwould turn up like this song and Lord \nCan You H
EXTT5=ear Me?\n
EXTT6=
EXTT7=
EXTT8=
EXTT9=
EXTT10=
PLAYORDER=
